<?xml version="1.0" encoding="UTF-8"?>
<svg version="1.1" xmlns="http://www.w3.org/2000/svg" width="480" height="480">
<path d="M0 0 C2.25456266 -0.00135892 4.5091251 -0.00314159 6.76368713 -0.00531006 C12.82570856 -0.00982628 18.88771276 -0.00811893 24.94973445 -0.00493097 C31.3326654 -0.00237677 37.71559499 -0.00475339 44.098526 -0.00631714 C55.49692601 -0.00824581 66.89531659 -0.00516249 78.29371501 -0.0000578 C88.58220707 0.00440756 98.87068783 0.00363312 109.15917969 -0.00097656 C121.1687127 -0.006355 133.17823721 -0.00830578 145.18777186 -0.0053643 C151.52231368 -0.00381595 157.85684777 -0.00356777 164.19138908 -0.00690079 C170.15138067 -0.00981837 176.11135122 -0.00773341 182.07134056 -0.00200653 C184.24110123 -0.00069951 186.41086371 -0.00103737 188.58062363 -0.0032692 C199.08943338 -0.01307072 209.58138019 0.07693359 220.08155823 0.53201294 C221.31975733 0.58147578 221.31975733 0.58147578 222.58297056 0.63193786 C246.30998898 1.80139419 269.42643586 9.91557308 287.76586914 25.12939453 C288.50708008 25.65017578 289.24829102 26.17095703 290.01196289 26.70751953 C290.88014648 27.41134766 290.88014648 27.41134766 291.76586914 28.12939453 C291.76586914 28.78939453 291.76586914 29.44939453 291.76586914 30.12939453 C292.60118164 30.46970703 292.60118164 30.46970703 293.45336914 30.81689453 C311.63946683 41.13873376 322.84253166 65.7336194 328.24560547 85.0402832 C333.59667266 105.28838513 332.91662747 126.57248543 332.89526367 147.36352539 C332.89662259 149.61808805 332.89840526 151.87265049 332.90057373 154.12721252 C332.90508996 160.18923395 332.9033826 166.25123815 332.90019464 172.31325984 C332.89764044 178.69619079 332.90001706 185.07912038 332.90158081 191.46205139 C332.90350948 202.8604514 332.90042616 214.25884198 332.89532147 225.6572404 C332.89085611 235.94573246 332.89163055 246.23421322 332.89624023 256.52270508 C332.90161867 268.53223809 332.90356945 280.5417626 332.90062797 292.55129725 C332.89907962 298.88583907 332.89883144 305.22037316 332.90216446 311.55491447 C332.90508204 317.51490606 332.90299709 323.47487661 332.8972702 329.43486595 C332.89596318 331.60462662 332.89630104 333.7743891 332.89853287 335.94414902 C332.90833439 346.45295878 332.81833008 356.94490558 332.36325073 367.44508362 C332.3137879 368.68328272 332.3137879 368.68328272 332.26332581 369.94649595 C331.09386948 393.67351438 322.97969059 416.78996125 307.76586914 435.12939453 C307.24508789 435.87060547 306.72430664 436.61181641 306.18774414 437.37548828 C305.71852539 437.95427734 305.24930664 438.53306641 304.76586914 439.12939453 C304.10586914 439.12939453 303.44586914 439.12939453 302.76586914 439.12939453 C302.42555664 439.96470703 302.42555664 439.96470703 302.07836914 440.81689453 C291.75652991 459.00299222 267.16164427 470.20605706 247.85498047 475.60913086 C227.60687854 480.96019805 206.32277824 480.28015286 185.53173828 480.25878906 C183.27717562 480.26014799 181.02261318 480.26193066 178.76805115 480.26409912 C172.70602972 480.26861535 166.64402552 480.26690799 160.58200383 480.26372004 C154.19907289 480.26116583 147.81614329 480.26354245 141.43321228 480.2651062 C130.03481227 480.26703487 118.63642169 480.26395155 107.23802327 480.25884686 C96.94953121 480.2543815 86.66105045 480.25515594 76.37255859 480.25976562 C64.36302559 480.26514406 52.35350108 480.26709484 40.34396642 480.26415336 C34.0094246 480.26260501 27.67489051 480.26235683 21.3403492 480.26568985 C15.38035761 480.26860743 9.42038706 480.26652248 3.46039772 480.26079559 C1.29063705 480.25948857 -0.87912543 480.25982643 -3.04888535 480.26205826 C-13.5576951 480.27185978 -24.04964191 480.18185547 -34.54981995 479.72677612 C-35.78801905 479.67731329 -35.78801905 479.67731329 -37.05123228 479.6268512 C-60.7782507 478.45739487 -83.89469758 470.34321598 -102.23413086 455.12939453 C-102.9753418 454.60861328 -103.71655273 454.08783203 -104.48022461 453.55126953 C-105.05901367 453.08205078 -105.63780273 452.61283203 -106.23413086 452.12939453 C-106.23413086 451.46939453 -106.23413086 450.80939453 -106.23413086 450.12939453 C-106.79100586 449.90251953 -107.34788086 449.67564453 -107.92163086 449.44189453 C-126.10772854 439.1200553 -137.31079338 414.52516966 -142.71386719 395.21850586 C-148.06493438 374.97040393 -147.38488919 353.68630363 -147.36352539 332.89526367 C-147.36488431 330.64070101 -147.36666698 328.38613857 -147.36883545 326.13157654 C-147.37335167 320.06955511 -147.37164432 314.00755091 -147.36845636 307.94552922 C-147.36590216 301.56259828 -147.36827878 295.17966868 -147.36984253 288.79673767 C-147.3717712 277.39833766 -147.36868788 265.99994708 -147.36358319 254.60154866 C-147.35911783 244.31305661 -147.35989227 234.02457584 -147.36450195 223.73608398 C-147.36988039 211.72655098 -147.37183117 199.71702647 -147.36888969 187.70749182 C-147.36734134 181.37294999 -147.36709316 175.0384159 -147.37042618 168.70387459 C-147.37334376 162.743883 -147.3712588 156.78391246 -147.36553192 150.82392311 C-147.3642249 148.65416244 -147.36456276 146.48439996 -147.36679459 144.31464005 C-147.37659611 133.80583029 -147.2865918 123.31388348 -146.83151245 112.81370544 C-146.78204961 111.57550634 -146.78204961 111.57550634 -146.73158753 110.31229311 C-145.5621312 86.58527469 -137.44795231 63.46882781 -122.23413086 45.12939453 C-121.71334961 44.38818359 -121.19256836 43.64697266 -120.65600586 42.88330078 C-120.18678711 42.30451172 -119.71756836 41.72572266 -119.23413086 41.12939453 C-118.57413086 41.12939453 -117.91413086 41.12939453 -117.23413086 41.12939453 C-117.00725586 40.57251953 -116.78038086 40.01564453 -116.54663086 39.44189453 C-106.22479163 21.25579685 -81.62990599 10.05273201 -62.32324219 4.6496582 C-42.07514026 -0.70140899 -20.79103996 -0.0213638 0 0 Z " fill="#FEFEFE" transform="translate(147.234130859375,-0.12939453125)"/>
<path d="M0 0 C2.03610987 -0.00599088 4.07221748 -0.01279771 6.10832214 -0.02035522 C11.61643531 -0.03795966 17.12448628 -0.04270809 22.63262486 -0.0439868 C26.07709027 -0.04541144 29.52154001 -0.04968686 32.96600151 -0.05498123 C44.99101638 -0.07345903 57.01598702 -0.08165416 69.04101562 -0.08007812 C80.23827547 -0.07887547 91.43534296 -0.10000795 102.63255411 -0.13156545 C112.26000213 -0.15772914 121.88738729 -0.16844547 131.51487058 -0.16716731 C137.25903217 -0.16665795 143.00302245 -0.17232734 148.74714851 -0.19352341 C154.1473009 -0.21290868 159.54711849 -0.21302812 164.94728279 -0.19849014 C166.92534882 -0.19640173 168.90343583 -0.20110483 170.88146591 -0.21321106 C173.58881302 -0.22870425 176.29501128 -0.21932898 179.00233459 -0.20394897 C180.16675531 -0.21937966 180.16675531 -0.21937966 181.35469967 -0.23512208 C190.47484664 -0.12119633 198.26571048 4.23885802 204.91381836 10.29052734 C211.05869004 16.9301809 213.11923252 24.38203962 212.91381836 33.29052734 C222.15347102 28.78399376 231.221184 24.06361911 240.17651367 19.01489258 C245.87932521 15.8179925 251.67539356 12.86793999 257.54711914 9.99560547 C261.08071162 8.25360479 264.47363345 6.41916226 267.78881836 4.29052734 C270.91381836 2.29052734 270.91381836 2.29052734 272.91381836 2.29052734 C273.04039643 9.49858898 273.12807608 16.70636508 273.18847656 23.9152832 C273.21365043 26.36851715 273.24779199 28.82167589 273.29101562 31.2746582 C273.35153805 34.7970635 273.37999984 38.31847901 273.40209961 41.84130859 C273.42790604 42.94138748 273.45371246 44.04146637 273.4803009 45.17488098 C273.4813342 47.96797218 273.4422884 50.54804047 272.91381836 53.29052734 C270.62036133 55.41894531 270.62036133 55.41894531 267.91381836 56.29052734 C267.27162354 56.54938721 266.62942871 56.80824707 265.96777344 57.07495117 C265.35828857 57.27628662 264.74880371 57.47762207 264.12084961 57.68505859 C258.87388987 59.57366843 254.25607591 62.40565028 249.47436523 65.23779297 C244.21604281 68.29052734 244.21604281 68.29052734 240.91381836 68.29052734 C240.91381836 68.95052734 240.91381836 69.61052734 240.91381836 70.29052734 C240.41422607 70.50241699 239.91463379 70.71430664 239.39990234 70.93261719 C232.43062262 73.95349794 225.71042466 77.40675359 218.97631836 80.91552734 C218.38753906 81.22089417 217.79875977 81.52626099 217.19213867 81.84088135 C208.76960116 86.20935939 200.41570518 90.68484466 192.20703125 95.4453125 C187.22881139 98.29052734 187.22881139 98.29052734 183.91381836 98.29052734 C183.91381836 98.95052734 183.91381836 99.61052734 183.91381836 100.29052734 C182.39921021 100.9232959 182.39921021 100.9232959 180.85400391 101.56884766 C177.11382981 103.17316218 173.48484055 104.96832825 169.87084961 106.83740234 C168.89628059 107.33883759 168.89628059 107.33883759 167.90202332 107.85040283 C166.5341541 108.55514253 165.16691854 109.26111338 163.80029297 109.96826172 C161.75104634 111.02774273 159.69880828 112.08124856 157.64624023 113.13427734 C149.58592881 117.28648159 141.6917235 121.624702 133.91381836 126.29052734 C142.50447867 131.22558752 151.13195523 135.97112782 160.03076172 140.32836914 C165.74827863 143.15083373 171.24425823 146.28201217 176.73022461 149.52880859 C180.04939908 151.36555422 183.4252743 152.80410422 186.91381836 154.29052734 C189.58850254 155.63322918 192.21880615 157.0547573 194.85131836 158.47802734 C200.39223791 161.44622661 205.95969079 164.33139698 211.60131836 167.10302734 C218.88517102 170.69775024 225.99586603 174.58208558 233.11181641 178.49658203 C246.23571935 185.69440126 259.52611753 192.59667693 272.91381836 199.29052734 C272.91381836 216.12052734 272.91381836 232.95052734 272.91381836 250.29052734 C269.55828709 248.94831484 266.70895349 247.71230466 263.61303711 245.97021484 C262.40647461 245.29684082 262.40647461 245.29684082 261.17553711 244.60986328 C259.90129883 243.89491699 259.90129883 243.89491699 258.60131836 243.16552734 C251.63216656 239.2872858 244.61472645 235.58596929 237.4519043 232.08032227 C232.31643741 229.546081 227.40444701 226.70486274 222.48803711 223.76708984 C219.37383226 221.98079329 216.25888631 220.58293996 212.91381836 219.29052734 C212.99631836 220.21865234 213.07881836 221.14677734 213.16381836 222.10302734 C213.09243205 230.93708286 208.99935404 238.21534355 202.97631836 244.41552734 C192.12860091 254.27708866 176.86529924 252.58507527 163.12890625 252.56518555 C161.13692535 252.56953874 159.14494613 252.57472391 157.15296936 252.58067322 C151.76867019 252.59400791 146.38444144 252.59464815 141.00012898 252.59210992 C136.49480233 252.59103661 131.98948972 252.59593267 127.48416609 252.60071534 C116.85108691 252.61179104 106.21804308 252.61225861 95.58496094 252.60620117 C84.63713848 252.60016012 73.68944451 252.61248025 62.74164397 252.63377124 C53.3204975 252.65141553 43.89939183 252.6573842 34.47822946 252.6541335 C28.86089387 252.65232528 23.24364997 252.65491086 17.62632942 252.66884804 C12.34274469 252.6814681 7.05935965 252.67944282 1.77577782 252.66643715 C-0.15587305 252.66408105 -2.08753815 252.66677114 -4.01917267 252.67506027 C-30.71975517 252.78132038 -30.71975517 252.78132038 -41.01977539 242.56396484 C-46.84764943 236.15220172 -48.21836604 230.88845873 -48.19970703 222.19335938 C-48.1996315 221.0125882 -48.19955597 219.83181702 -48.19947815 218.61526489 C-48.19173622 216.72588699 -48.19173622 216.72588699 -48.18383789 214.79833984 C-48.18242294 213.49726288 -48.181008 212.19618591 -48.17955017 210.85568237 C-48.17575008 207.41322881 -48.16594148 203.9708181 -48.15484619 200.52838135 C-48.14457789 197.00899841 -48.14004099 193.48960848 -48.13500977 189.97021484 C-48.12431673 183.07696818 -48.10727075 176.18374983 -48.08618164 169.29052734 C-47.34881271 168.95990799 -46.61144379 168.62928864 -45.85173035 168.28865051 C-44.87488785 167.84816879 -43.89804535 167.40768707 -42.89160156 166.95385742 C-41.92735764 166.52011307 -40.96311371 166.08636871 -39.96965027 165.63948059 C-35.66131322 163.62394098 -31.53797743 161.31634149 -27.39868164 158.97802734 C-20.60052973 155.1834875 -13.75510977 151.56847062 -6.76123047 148.14990234 C-1.64607785 145.62782531 3.26566566 142.82298721 8.18432617 139.94042969 C11.66762909 137.92510452 15.02341103 136.38522539 18.83569336 135.14208984 C22.91925111 133.46875227 26.61787028 131.0132399 30.37475586 128.71630859 C32.91381836 127.29052734 32.91381836 127.29052734 34.91381836 127.29052734 C34.91381836 126.63052734 34.91381836 125.97052734 34.91381836 125.29052734 C34.0669043 125.04173828 33.21999023 124.79294922 32.34741211 124.53662109 C28.62423257 123.18543307 25.35712019 121.38002074 21.97631836 119.35302734 C18.02899183 116.9968712 14.17244151 114.94771931 9.91162109 113.19067383 C4.43585148 110.72346589 -0.74815605 107.59152546 -5.99243164 104.67333984 C-9.81380194 102.56318756 -13.5632107 100.51457418 -17.57836914 98.79443359 C-22.64796746 96.62094211 -27.39352752 93.9062838 -32.21118164 91.22802734 C-34.1498127 90.15115236 -36.08987011 89.07684029 -38.03149414 88.00537109 C-38.88243652 87.53220459 -39.73337891 87.05903809 -40.61010742 86.5715332 C-43.05595378 85.30616584 -45.52452917 84.29535152 -48.08618164 83.29052734 C-48.13277758 76.03138647 -48.16818803 68.7722785 -48.18980598 61.51301765 C-48.20018802 58.14127396 -48.21424348 54.76963352 -48.23706055 51.39794922 C-48.26146444 47.51055227 -48.27270047 43.62329973 -48.28149414 39.73583984 C-48.29181671 38.54064728 -48.30213928 37.34545471 -48.31277466 36.11404419 C-48.31429591 24.62947637 -47.70056419 16.80979655 -39.44555664 8.42333984 C-28.43233207 -1.53232343 -13.92447279 -0.00818267 0 0 Z " fill="#010101" transform="translate(134.086181640625,113.70947265625)"/>
<path d="M0 0 C2.00657062 1.09713677 3.98604342 2.24508567 5.9375 3.4375 C9.58146573 5.66036711 13.15675744 7.53381962 17.1003418 9.16674805 C20.81702132 10.79700472 24.3620672 12.77197169 27.9375 14.6875 C33.98009613 17.90119826 40.04504268 21.04421033 46.1875 24.0625 C52.42669176 27.13427096 58.49647714 30.45156706 64.51049805 33.94360352 C67.4229908 35.62077006 70.23843424 37.10055462 73.34375 38.41015625 C78.08898136 40.47352074 82.47370577 43.01800839 86.9375 45.625 C87.81212891 46.12773437 88.68675781 46.63046875 89.58789062 47.1484375 C94.36408079 49.92243085 94.36408079 49.92243085 96 51 C96 51.33 96 51.66 96 52 C29.01 52 -37.98 52 -107 52 C-102.48531456 48.38825165 -98.20456289 45.70082035 -93.1875 42.9375 C-92.41857422 42.50373047 -91.64964844 42.06996094 -90.85742188 41.62304688 C-86.64647307 39.28836893 -82.51787534 37.39295931 -77.9855957 35.78491211 C-74.2986128 34.32743639 -70.92765861 32.28976243 -67.5 30.3125 C-61.73768573 27.0462377 -55.95104779 23.90853625 -50 21 C-43.26432489 17.70466657 -36.71463734 14.1267757 -30.20117188 10.41210938 C-26.9602203 8.57744125 -23.7627721 6.84174379 -20.3203125 5.4140625 C-16.20301815 3.66057949 -12.53840644 1.37297005 -8.74609375 -0.98828125 C-5.04832395 -2.35061749 -3.54172794 -1.61568517 0 0 Z " fill="#FCFCFC" transform="translate(223,267)"/>
<path d="M0 0 C66.99 0 133.98 0 203 0 C200.43341091 2.56658909 198.67553187 3.89678693 195.578125 5.59375 C194.71703125 6.06683594 193.8559375 6.53992188 192.96875 7.02734375 C191.62296875 7.75630859 191.62296875 7.75630859 190.25 8.5 C189.36828125 8.98597656 188.4865625 9.47195312 187.578125 9.97265625 C183.9110812 11.97534237 180.2930126 13.87460737 176.44921875 15.51953125 C171.97255013 17.44100057 167.8053541 19.80181782 163.5625 22.1875 C156.72644828 25.9943655 149.84647777 29.63152731 142.81884766 33.06982422 C137.25311407 35.81667827 131.85593973 38.82740605 126.48925781 41.94384766 C122.42887792 44.28180294 118.31479605 46.15649592 114 48 C111.21875093 49.61893603 108.47785952 51.28737049 105.74609375 52.98828125 C101.07036719 54.71091735 97.93752552 52.4319546 93.6171875 50.44140625 C92.36713946 49.82041465 91.11988405 49.19377994 89.875 48.5625 C89.19050781 48.21832031 88.50601563 47.87414062 87.80078125 47.51953125 C81.25804339 44.19549269 74.8491959 40.63738414 68.43408203 37.07519531 C59.57624185 32.1743899 50.52926477 27.70400448 41.4375 23.2578125 C32.87792756 19.04508601 24.42510424 14.63308315 16.00183105 10.15505981 C14.71139968 9.46965775 13.41997821 8.78611647 12.12756348 8.10446167 C10.30196044 7.14050495 8.48057739 6.16901209 6.66015625 5.1953125 C5.59418213 4.62828613 4.52820801 4.06125977 3.42993164 3.47705078 C1 2 1 2 0 0 Z " fill="#FBFBFB" transform="translate(116,161)"/>
</svg>
